<svg width="296" height="200" viewBox="0 0 296 200" fill="none" xmlns="http://www.w3.org/2000/svg">
<path d="M226.625 186.965C222.835 183.763 220.533 178.705 221.137 173.78C221.74 168.856 225.479 164.329 230.329 163.283C235.179 162.237 240.708 165.132 242.181 169.869C242.991 160.735 243.926 151.219 248.782 143.44C253.179 136.397 260.795 131.358 269.049 130.456C277.303 129.554 285.993 132.96 291.141 139.474C296.289 145.989 297.549 155.46 293.944 162.94C291.288 168.45 286.395 172.55 281.268 175.886C264.701 186.575 244.832 190.922 225.316 188.127L226.625 186.965Z" fill="#F2F2F2"/>
<path d="M282.981 133.149C276.17 138.696 269.922 144.9 264.327 151.672C255.571 162.233 248.485 174.074 243.317 186.782C242.939 187.709 244.444 188.112 244.819 187.195C253.275 166.542 266.774 148.339 284.082 134.25C284.859 133.617 283.752 132.521 282.981 133.149Z" fill="white"/>
<path d="M95.2872 186.096C100.492 181.698 103.654 174.75 102.825 167.986C101.996 161.222 96.8602 155.004 90.1988 153.568C83.5375 152.132 75.9441 156.108 73.9208 162.615C72.8073 150.069 71.5242 136.998 64.8542 126.314C58.8147 116.641 48.3542 109.719 37.0174 108.48C25.6806 107.242 13.7443 111.919 6.67397 120.867C-0.3964 129.815 -2.12755 142.824 2.82435 153.097C6.47224 160.665 13.193 166.297 20.2346 170.879C42.6998 185.497 70.5679 191.593 97.0848 187.691" fill="#F2F2F2"/>
<path d="M17.8779 112.178C27.2322 119.797 35.8138 128.318 43.4985 137.619C51.1845 146.91 57.9511 156.924 63.7034 167.522C66.9187 173.467 69.8071 179.582 72.3556 185.842C72.8753 187.115 70.8076 187.67 70.2937 186.41C65.7796 175.375 60.1948 164.808 53.6194 154.862C47.0759 144.952 39.5866 135.7 31.2565 127.236C26.545 122.451 21.574 117.929 16.366 113.69C15.2985 112.82 16.8192 111.315 17.8779 112.178L17.8779 112.178Z" fill="white"/>
<path d="M212.47 188.579H88.2866V61.1632C88.2866 34.0545 110.341 12 137.45 12H163.307C190.416 12 212.47 34.0545 212.47 61.1632V188.579Z" fill="#F2F2F2"/>
<path d="M186.613 188.579H88.2868V61.1631C88.2596 50.7756 91.5489 40.6507 97.6757 32.2625C97.9015 31.9547 98.1268 31.6508 98.3591 31.3503C101.323 27.4635 104.849 24.0405 108.823 21.1942C109.047 21.0309 109.272 20.8705 109.501 20.71C112.826 18.4091 116.422 16.5283 120.209 15.1101C120.434 15.0249 120.663 14.9395 120.892 14.8576C124.316 13.6355 127.866 12.7984 131.476 12.3617C131.699 12.3311 131.929 12.3072 132.159 12.2833C135.676 11.9072 139.224 11.9072 142.742 12.2833C142.971 12.3072 143.201 12.3311 143.427 12.362C147.036 12.7988 150.585 13.6358 154.008 14.8576C154.237 14.9395 154.466 15.0249 154.692 15.1103C158.432 16.5105 161.986 18.3634 165.275 20.6274C165.504 20.7844 165.732 20.9449 165.958 21.1054C168.185 22.6952 170.277 24.4663 172.212 26.4007C173.764 27.9523 175.211 29.6062 176.542 31.3513C176.773 31.6508 176.998 31.9547 177.224 32.262C183.351 40.6503 186.64 50.7754 186.613 61.1631V188.579Z" fill="#CCCCCC"/>
<path d="M178.619 131.59C181.625 131.59 184.063 129.153 184.063 126.147C184.063 123.14 181.625 120.703 178.619 120.703C175.613 120.703 173.175 123.14 173.175 126.147C173.175 129.153 175.613 131.59 178.619 131.59Z" fill="#1ABC9C"/>
<path d="M202.301 184.763H198.13L196.146 168.674L202.302 168.675L202.301 184.763Z" fill="#FFB8B8"/>
<path d="M195.15 183.571H203.194V188.636H190.085C190.085 187.971 190.216 187.312 190.471 186.697C190.725 186.083 191.098 185.525 191.568 185.054C192.039 184.584 192.597 184.211 193.212 183.956C193.826 183.702 194.485 183.571 195.15 183.571Z" fill="#2F2E41"/>
<path d="M223.053 184.763H218.882L216.897 168.674L223.053 168.675L223.053 184.763Z" fill="#FFB8B8"/>
<path d="M215.901 183.571H223.946V188.636H210.836C210.836 187.971 210.967 187.312 211.222 186.697C211.477 186.083 211.85 185.525 212.32 185.054C212.79 184.584 213.349 184.211 213.963 183.956C214.578 183.702 215.236 183.571 215.901 183.571Z" fill="#2F2E41"/>
<path d="M181.374 127.225C181.074 126.783 180.875 126.281 180.79 125.753C180.705 125.226 180.737 124.686 180.883 124.172C181.03 123.658 181.287 123.182 181.637 122.779C181.987 122.375 182.421 122.053 182.909 121.835L197.088 82.754L204.066 86.5617L187.876 123.909C188.187 124.753 188.178 125.682 187.851 126.52C187.523 127.357 186.9 128.046 186.098 128.455C185.297 128.864 184.373 128.964 183.503 128.738C182.632 128.511 181.875 127.973 181.374 127.225Z" fill="#FFB8B8"/>
<path d="M220.924 134.569C220.46 134.303 220.061 133.939 219.753 133.502C219.445 133.065 219.237 132.566 219.144 132.04C219.05 131.514 219.072 130.974 219.21 130.457C219.347 129.941 219.596 129.461 219.94 129.051L215.547 87.7102L223.487 88.073L225.313 128.737C225.963 129.359 226.362 130.198 226.435 131.095C226.508 131.991 226.249 132.884 225.708 133.602C225.167 134.321 224.381 134.817 223.5 134.995C222.618 135.173 221.701 135.021 220.924 134.569Z" fill="#FFB8B8"/>
<path d="M208.259 75.5154C212.874 75.5154 216.615 71.7741 216.615 67.159C216.615 62.5439 212.874 58.8026 208.259 58.8026C203.644 58.8026 199.902 62.5439 199.902 67.159C199.902 71.7741 203.644 75.5154 208.259 75.5154Z" fill="#FFB8B8"/>
<path d="M220.872 125.167H195.679L195.709 124.971C195.754 124.678 200.199 95.5618 196.921 86.0364C196.592 85.1003 196.621 84.0757 197.002 83.1596C197.383 82.2436 198.09 81.501 198.986 81.0747H198.986C203.671 78.8682 212.666 76.1511 220.257 82.7449C221.374 83.7312 222.247 84.9638 222.805 86.3454C223.364 87.7269 223.593 89.2194 223.475 90.7049L220.872 125.167Z" fill="#1ABC9C"/>
<path d="M200.514 99.8649L189.171 97.5638L194.488 84.9652C194.806 83.7449 195.595 82.7007 196.682 82.0615C197.769 81.4223 199.065 81.2404 200.287 81.5556C201.508 81.8708 202.554 82.6575 203.195 83.743C203.837 84.8285 204.022 86.1242 203.71 87.346L200.514 99.8649Z" fill="#1ABC9C"/>
<path d="M215.042 104.137L214.36 88.5065C213.843 85.5682 215.525 82.7906 218.112 82.3365C220.7 81.8842 223.227 83.9221 223.746 86.882L226.309 101.487L215.042 104.137Z" fill="#1ABC9C"/>
<path d="M220.031 123.295C224.084 138.734 224.527 158.363 223.433 179.774L217.989 179.093L208.123 138.266L202.679 179.774L196.555 179.433C194.725 156.968 192.944 137.682 195.874 124.997L220.031 123.295Z" fill="#2F2E41"/>
<path d="M213.765 73.6168C212.206 75.2774 209.311 74.3859 209.108 72.1173C209.092 71.9412 209.093 71.764 209.112 71.588C209.216 70.5832 209.797 69.6708 209.658 68.6098C209.626 68.3457 209.528 68.0941 209.372 67.8787C208.13 66.2152 205.214 68.6227 204.041 67.1168C203.322 66.1934 204.167 64.7396 203.616 63.7075C202.888 62.3454 200.731 63.0173 199.379 62.2714C197.874 61.4414 197.964 59.1327 198.954 57.7284C200.162 56.0158 202.28 55.102 204.372 54.9703C206.464 54.8386 208.541 55.404 210.494 56.165C212.712 57.0296 214.912 58.2246 216.278 60.1754C217.938 62.5479 218.098 65.7375 217.267 68.5117C216.762 70.1992 215.038 72.2607 213.765 73.6168Z" fill="#2F2E41"/>
<path d="M285.782 188.798H34.5919C34.4847 188.798 34.3819 188.755 34.3062 188.679C34.2305 188.603 34.188 188.501 34.188 188.393C34.188 188.286 34.2305 188.183 34.3062 188.107C34.3819 188.031 34.4847 187.989 34.5919 187.988H285.782C285.889 187.989 285.992 188.031 286.067 188.107C286.143 188.183 286.185 188.286 286.185 188.393C286.185 188.501 286.143 188.603 286.067 188.679C285.992 188.755 285.889 188.798 285.782 188.798Z" fill="#3F3D56"/>
<path d="M159.565 151.664H115.335C114.753 151.668 114.193 151.44 113.778 151.03C113.363 150.621 113.128 150.064 113.124 149.482V50.7575C113.128 50.1751 113.363 49.6181 113.778 49.2089C114.193 48.7998 114.753 48.5717 115.335 48.5749H159.565C160.147 48.5717 160.707 48.7998 161.122 49.2089C161.537 49.6181 161.772 50.1751 161.776 50.7575V149.482C161.772 150.064 161.537 150.621 161.122 151.03C160.707 151.44 160.147 151.668 159.565 151.664Z" fill="white"/>
<path d="M161.776 80.5186H113.124V81.199H161.776V80.5186Z" fill="#CCCCCC"/>
<path d="M161.951 119.343H113.298V120.023H161.951V119.343Z" fill="#CCCCCC"/>
<path d="M129.115 48.575H128.434V152.005H129.115V48.575Z" fill="#CCCCCC"/>
<path d="M146.126 48.575H145.446V152.005H146.126V48.575Z" fill="#CCCCCC"/>
</svg>
