<svg width="24" height="24" viewBox="0 0 24 24" fill="none" xmlns="http://www.w3.org/2000/svg">
  <path
    d="M20.6605 10.6106L13.3299 4.64948C12.2626 3.78351 10.7119 3.78351 9.64454 4.64948L2.33414 10.6106C1.99178 10.8925 1.89109 11.396 2.13275 11.7988C2.314 12.0606 2.61609 12.2217 2.93831 12.2217H4.91191V18.1626C4.91191 19.5522 6.03969 20.68 7.42926 20.68H8.87926C9.2619 20.68 9.58412 20.3578 9.58412 19.9751V17.1557C9.58412 16.1085 10.4501 15.2425 11.4973 15.2425C12.5445 15.2425 13.4105 16.1085 13.4105 17.1557V19.9751C13.4105 20.3578 13.7327 20.68 14.1154 20.68H15.5653C16.9549 20.68 18.0827 19.5522 18.0827 18.1626V12.2217H20.0563C20.3785 12.2217 20.6806 12.0807 20.8619 11.7988C21.1035 11.396 21.023 10.8925 20.6605 10.6106Z"
    fill="#665DF5"/>
</svg>
