<svg width="24" height="24" viewBox="0 0 24 24" fill="none" xmlns="http://www.w3.org/2000/svg">
  <path
    d="M2.4 5.8C3.72549 5.8 4.8 4.72549 4.8 3.4C4.8 2.07452 3.72549 1 2.4 1C1.07452 1 0 2.07452 0 3.4C0 4.72549 1.07452 5.8 2.4 5.8Z"
    fill="#6B6A72"/>
  <path
    d="M2.4 14.2C3.72549 14.2 4.8 13.1255 4.8 11.8C4.8 10.4745 3.72549 9.40002 2.4 9.40002C1.07452 9.40002 0 10.4745 0 11.8C0 13.1255 1.07452 14.2 2.4 14.2Z"
    fill="#6B6A72"/>
  <path
    d="M2.4 22.6001C3.72549 22.6001 4.8 21.5255 4.8 20.2C4.8 18.8746 3.72549 17.8 2.4 17.8C1.07452 17.8 0 18.8746 0 20.2C0 21.5255 1.07452 22.6001 2.4 22.6001Z"
    fill="#6B6A72"/>
  <path
    d="M9.5999 4.59995H22.7999C23.1182 4.59995 23.4234 4.47352 23.6484 4.24848C23.8735 4.02344 23.9999 3.71821 23.9999 3.39995C23.9999 3.08169 23.8735 2.77647 23.6484 2.55142C23.4234 2.32638 23.1182 2.19995 22.7999 2.19995H9.5999C9.28164 2.19995 8.97642 2.32638 8.75137 2.55142C8.52633 2.77647 8.3999 3.08169 8.3999 3.39995C8.3999 3.71821 8.52633 4.02344 8.75137 4.24848C8.97642 4.47352 9.28164 4.59995 9.5999 4.59995V4.59995Z"
    fill="#6B6A72"/>
  <path
    d="M22.7999 10.6H9.5999C9.28164 10.6 8.97642 10.7264 8.75137 10.9514C8.52633 11.1765 8.3999 11.4817 8.3999 11.8C8.3999 12.1182 8.52633 12.4235 8.75137 12.6485C8.97642 12.8735 9.28164 13 9.5999 13H22.7999C23.1182 13 23.4234 12.8735 23.6484 12.6485C23.8735 12.4235 23.9999 12.1182 23.9999 11.8C23.9999 11.4817 23.8735 11.1765 23.6484 10.9514C23.4234 10.7264 23.1182 10.6 22.7999 10.6Z"
    fill="#6B6A72"/>
  <path
    d="M22.7999 19H9.5999C9.28164 19 8.97642 19.1264 8.75137 19.3515C8.52633 19.5765 8.3999 19.8817 8.3999 20.2C8.3999 20.5183 8.52633 20.8235 8.75137 21.0485C8.97642 21.2736 9.28164 21.4 9.5999 21.4H22.7999C23.1182 21.4 23.4234 21.2736 23.6484 21.0485C23.8735 20.8235 23.9999 20.5183 23.9999 20.2C23.9999 19.8817 23.8735 19.5765 23.6484 19.3515C23.4234 19.1264 23.1182 19 22.7999 19Z"
    fill="#6B6A72"/>
</svg>
