<svg width="24" height="24" viewBox="0 0 24 24" fill="none" xmlns="http://www.w3.org/2000/svg">
  <path d="M13.0128 24C6.38905 24 1 18.6099 1 11.9872C1 5.55877 6.03493 0.294023 12.4613 0.00153682C12.684 -0.0151767 12.8593 0.105996 12.9533 0.2888C13.0452 0.472648 13.0201 0.695146 12.8895 0.854969C11.2843 2.8094 10.4026 5.27882 10.4026 7.80882C10.4026 13.8567 15.3216 18.777 21.3709 18.777C21.4732 18.777 21.5732 18.7687 21.6748 18.7624L21.8733 18.7496C22.0666 18.7415 22.271 18.8541 22.3643 19.0371C22.4583 19.222 22.4324 19.4435 22.3005 19.602C20.0071 22.3968 16.6221 24 13.0128 24Z" fill="#487eb0"/>
</svg>
