<svg width="24" height="24" viewBox="0 0 24 24" fill="none" xmlns="http://www.w3.org/2000/svg">
<path d="M12 17.0628C9.17028 17.0628 6.87625 14.7688 6.87625 11.9391C6.87625 9.1093 9.17028 6.81533 12 6.81533C14.8298 6.81533 17.1238 9.1093 17.1238 11.9391C17.1238 14.7688 14.8298 17.0628 12 17.0628ZM23.9934 14.2343C23.9634 14.4222 23.8355 14.5798 23.6578 14.6478L19.8513 16.105L21.0819 19.8201C21.1417 20.0007 21.1007 20.1995 20.9742 20.3416C20.8477 20.4837 20.6549 20.5475 20.4687 20.5091L16.477 19.6845L15.511 23.4771C15.464 23.6615 15.3223 23.8068 15.1391 23.8583C15.0915 23.8717 15.0431 23.8782 14.9949 23.8782C14.8579 23.8782 14.7239 23.8252 14.6231 23.7269L11.7054 20.8807L8.84748 23.5544C8.70854 23.6843 8.51081 23.7303 8.32878 23.675C8.14674 23.6197 8.00806 23.4714 7.96496 23.2861L7.04159 19.3161L3.19313 20.0275C3.00608 20.062 2.81473 19.9943 2.69123 19.8495C2.56773 19.7048 2.53084 19.5052 2.59442 19.3258L3.95677 15.4842L0.331813 14.009C0.155582 13.9373 0.0309984 13.777 0.00501442 13.5885C-0.0210121 13.4001 0.0555152 13.2121 0.205742 13.0953L3.42408 10.594L1.16598 7.39733C1.0562 7.24192 1.03768 7.03981 1.11737 6.86707C1.19707 6.69428 1.36288 6.57716 1.55234 6.55979L5.61134 6.18782L5.4326 2.27815C5.42391 2.0881 5.51728 1.90787 5.67752 1.80531C5.83776 1.70276 6.04055 1.69349 6.20951 1.78097L9.82877 3.65564L11.7856 0.266283C11.8807 0.101533 12.0565 0 12.2468 0C12.437 0 12.6128 0.101491 12.7079 0.266283L14.8105 3.90804L18.4318 2.12748C18.6025 2.04359 18.8051 2.05703 18.9631 2.16299C19.1212 2.26886 19.2107 2.451 19.1981 2.64084L18.9268 6.70782L22.8158 7.14651C23.0048 7.16784 23.1682 7.2884 23.2442 7.46276C23.3203 7.63714 23.2975 7.83887 23.1845 7.99195L20.7639 11.2712L23.803 13.737C23.9507 13.8568 24.0233 14.0464 23.9934 14.2343ZM12 18.3127C13.7025 18.3127 15.303 17.6497 16.5069 16.4459C17.7107 15.2421 18.3737 13.6415 18.3737 11.9391C18.3737 10.2366 17.7107 8.63608 16.5069 7.43227C15.3031 6.22848 13.7025 5.56551 12 5.56551C10.2976 5.56551 8.69702 6.22848 7.49318 7.43227C6.28935 8.63608 5.62636 10.2366 5.62636 11.9391C5.62636 13.6415 6.28935 15.2421 7.49318 16.4459C8.69702 17.6497 10.2976 18.3127 12 18.3127Z" fill="#fbc531"/>
</svg>
